<?xml version="1.0" standalone="no"?>
<!DOCTYPE svg PUBLIC "-//W3C//DTD SVG 20010904//EN"
 "http://www.w3.org/TR/2001/REC-SVG-20010904/DTD/svg10.dtd">
<svg version="1.0" xmlns="http://www.w3.org/2000/svg"
 width="500.000000pt" height="500.000000pt" viewBox="0 0 500.000000 500.000000"
 preserveAspectRatio="xMidYMid meet">
<metadata>
Created by potrace 1.11, written by Peter Selinger 2001-2013
</metadata>
<g transform="translate(0.000000,500.000000) scale(0.100000,-0.100000)"
fill="#000000" stroke="none">
<path d="M2380 4994 c-14 -2 -64 -6 -113 -9 -82 -6 -87 -8 -93 -31 -8 -31 -32
-44 -83 -44 -22 0 -43 -5 -46 -11 -5 -7 15 -9 59 -8 74 2 86 -3 68 -32 -7 -10
-9 -30 -6 -44 8 -34 -11 -55 -50 -55 -45 0 -77 -11 -73 -24 2 -7 22 -10 50 -8
60 5 69 -1 56 -36 -13 -34 -26 -42 -71 -42 -21 0 -38 -4 -38 -10 0 -5 17 -10
38 -10 20 0 44 -5 52 -10 23 -14 -25 -60 -64 -60 l-30 0 22 -20 c12 -11 29
-20 38 -20 13 0 10 -5 -10 -21 -34 -27 -35 -82 -2 -123 l24 -29 7 50 c5 39 17
63 55 110 56 69 85 83 173 83 46 0 73 -7 122 -31 67 -33 131 -91 121 -108 -8
-13 -58 -15 -71 -3 -19 17 -95 32 -122 26 -56 -13 -62 -27 -61 -134 l0 -98 67
-30 c36 -16 80 -30 96 -30 64 -1 163 -41 222 -90 32 -27 85 -65 119 -86 33
-20 83 -59 110 -87 l49 -50 0 -129 c0 -70 -3 -131 -6 -134 -9 -10 -69 15 -69
28 0 7 9 39 20 72 35 105 29 116 -101 205 -50 35 -114 89 -142 121 -29 32 -65
66 -82 74 -32 16 -128 33 -215 37 -30 2 -80 14 -110 26 -30 13 -82 32 -115 43
-33 11 -68 24 -77 29 -10 5 -28 3 -46 -7 -17 -8 -61 -17 -99 -20 -85 -8 -110
-23 -135 -85 -11 -27 -24 -49 -28 -49 -4 0 -27 -18 -51 -39 -57 -49 -101 -131
-104 -187 -2 -57 -48 -145 -105 -202 -60 -60 -84 -144 -64 -220 6 -21 8 -20
45 18 62 63 131 47 177 -41 l24 -44 -6 85 c-3 47 -15 117 -26 155 -29 104 -27
126 20 182 52 62 52 61 93 119 48 67 77 87 202 139 53 22 179 36 349 39 99 2
132 0 115 -8 l-24 -9 25 -5 c23 -4 24 -5 5 -13 -17 -6 -17 -8 -2 -8 9 -1 17
-5 17 -10 0 -5 8 -7 18 -4 10 2 29 -5 43 -16 13 -11 18 -20 12 -21 -7 0 -13
-4 -13 -9 0 -5 17 -8 38 -6 20 1 31 1 25 -2 -24 -9 -13 -21 23 -28 36 -6 73
-38 74 -62 0 -6 6 -13 13 -16 6 -2 -1 -8 -18 -12 -82 -19 -187 -60 -215 -84
-23 -19 -33 -37 -37 -69 -5 -36 -12 -48 -44 -69 -34 -22 -37 -28 -32 -57 3
-17 15 -51 27 -76 15 -32 20 -62 19 -104 -1 -48 2 -63 18 -77 10 -9 19 -21 19
-26 0 -9 28 -26 61 -36 16 -5 29 -47 29 -93 0 -21 -4 -24 -42 -24 -29 0 -51
-8 -75 -26 -34 -26 -42 -44 -20 -44 8 0 22 -9 32 -20 35 -39 81 -53 133 -43
53 10 93 6 72 -7 -7 -5 -29 -6 -49 -3 -20 3 -33 3 -30 -1 3 -3 33 -10 65 -14
l59 -8 -110 -28 c-60 -15 -121 -28 -135 -29 -14 -1 -30 -8 -37 -17 -9 -12 -31
-15 -97 -14 -54 1 -83 -2 -80 -8 4 -6 55 -9 123 -8 157 3 151 4 151 -26 0 -24
3 -26 32 -22 20 3 38 0 46 -8 8 -9 23 -12 39 -8 22 6 25 4 20 -10 -4 -10 -1
-16 8 -16 8 0 15 -4 15 -10 0 -5 -4 -10 -10 -10 -5 0 -10 -17 -10 -38 0 -21
-5 -43 -11 -49 -5 -5 -11 -33 -11 -62 -1 -29 -5 -54 -10 -57 -4 -3 -5 3 -1 13
4 13 3 15 -6 7 -6 -5 -11 -28 -11 -50 0 -21 0 -64 -1 -94 0 -61 -15 -120 -31
-120 -6 0 -8 -6 -5 -13 3 -7 -8 -20 -23 -29 -33 -19 -250 -26 -250 -9 0 6 -22
11 -50 11 -40 0 -48 -3 -44 -15 6 -16 -4 -19 -30 -9 -9 3 -16 15 -16 26 0 10
-4 16 -10 13 -5 -3 -10 -1 -10 4 0 6 6 11 13 11 8 0 9 3 1 8 -22 14 -34 52
-34 104 0 56 -33 203 -50 223 -5 6 -30 22 -56 35 -44 23 -111 82 -146 129 -9
13 -31 54 -49 92 -26 54 -38 69 -55 69 -30 0 -58 34 -46 57 5 10 9 45 11 78 2
81 -29 169 -74 212 -22 21 -32 38 -29 48 5 12 9 13 20 4 19 -16 18 -5 -6 40
-10 21 -27 42 -37 45 -21 9 -61 -19 -90 -65 -13 -19 -27 -39 -33 -46 -18 -21
-11 -30 20 -25 17 2 30 2 30 -1 0 -2 -18 -17 -40 -32 -28 -19 -40 -35 -40 -51
0 -17 -6 -24 -19 -24 -20 0 -35 -25 -25 -42 3 -5 -3 -12 -15 -15 -32 -8 -25
-19 12 -20 18 0 60 -12 93 -24 46 -19 60 -29 62 -48 4 -23 4 -23 -40 7 -36 25
-56 31 -118 35 -127 9 -136 21 -63 92 l48 45 -46 0 c-50 0 -69 13 -69 47 0 33
40 69 89 83 38 10 89 46 79 55 -2 3 -26 -7 -53 -20 -26 -14 -50 -23 -53 -21
-7 8 32 53 66 76 30 21 32 26 32 82 0 62 11 95 41 116 14 10 17 22 12 65 -2
28 0 111 6 182 7 99 15 144 34 189 17 39 25 79 26 120 0 33 5 88 11 121 5 33
10 85 10 116 0 53 32 174 51 194 5 5 9 17 9 26 0 10 3 19 8 21 14 6 50 93 57
137 8 50 -9 50 -20 0 -4 -16 -23 -65 -42 -107 -58 -124 -73 -180 -83 -302 -15
-183 -28 -263 -49 -318 -17 -41 -22 -85 -27 -219 -6 -151 -9 -172 -29 -203
-15 -24 -24 -57 -27 -103 -6 -66 -7 -70 -60 -125 -67 -71 -88 -101 -98 -148
-8 -33 -5 -40 21 -67 l30 -29 -31 -46 c-23 -36 -27 -48 -18 -59 6 -8 21 -12
32 -9 12 2 54 1 94 -4 55 -6 81 -14 107 -34 46 -35 107 -61 175 -75 88 -18
114 -39 133 -108 27 -95 24 -105 -35 -143 -130 -83 -247 -241 -268 -360 -16
-88 -32 -118 -93 -167 -208 -170 -246 -216 -333 -400 -96 -202 -163 -444 -184
-668 -13 -138 -13 -359 -1 -399 6 -17 15 -57 21 -88 11 -55 14 -59 91 -120
110 -87 271 -187 414 -257 168 -82 162 -81 170 -28 4 24 2 84 -4 133 -6 49
-11 126 -11 172 0 82 -1 84 -39 130 -21 26 -58 81 -82 122 -48 84 -59 150 -41
250 l10 55 -38 41 c-22 24 -44 61 -50 86 -25 92 16 244 110 405 62 106 178
273 190 273 3 0 23 -20 43 -45 21 -25 44 -45 51 -45 22 0 25 -33 16 -203 -15
-273 -15 -348 0 -357 11 -7 11 -11 1 -24 -10 -12 -11 -26 -4 -54 6 -22 6 -67
1 -112 -5 -41 -6 -94 -3 -117 4 -23 1 -95 -4 -160 -6 -67 -7 -140 -3 -168 9
-51 8 -52 26 371 2 45 7 87 11 93 4 7 3 24 -1 39 -10 37 -5 65 14 79 9 7 12
13 7 13 -4 0 7 10 25 23 19 12 37 34 41 48 9 35 -16 86 -45 93 -20 5 -24 14
-29 60 -3 29 -11 62 -17 73 -9 14 -10 50 -4 138 10 138 2 131 119 101 74 -18
335 -75 430 -92 100 -19 308 -27 393 -17 50 7 72 6 72 -1 0 -6 6 -4 13 4 7 8
28 17 47 19 38 3 52 11 32 18 -19 7 -4 23 22 23 35 0 93 27 101 47 6 17 8 16
15 -2 7 -19 3 -82 -16 -225 -4 -30 -4 -52 0 -49 10 9 37 145 46 233 l8 80 113
108 c63 59 142 135 175 168 34 33 66 60 71 60 6 0 16 34 23 75 9 53 19 80 35
95 29 27 34 18 41 -62 2 -35 18 -106 34 -158 16 -52 32 -108 35 -123 8 -41 25
-23 19 21 -16 125 -18 115 26 141 l40 25 -20 21 c-11 12 -17 25 -13 28 15 15
293 -277 355 -373 23 -37 28 -52 23 -82 -4 -20 -1 -88 5 -151 14 -146 19 -339
9 -386 -4 -20 -17 -81 -28 -136 -12 -55 -24 -116 -26 -136 -3 -20 -12 -56 -20
-80 -9 -24 -18 -59 -20 -77 -2 -19 -9 -39 -14 -46 -5 -6 -14 -31 -20 -56 -7
-25 -16 -54 -21 -65 -15 -35 -43 -129 -46 -157 -2 -14 -13 -43 -24 -63 l-21
-38 48 28 c253 147 511 383 710 649 653 873 648 2107 -12 2984 l-70 93 -3
-875 -2 -876 -35 20 c-20 11 -41 20 -48 20 -7 0 -86 37 -177 81 -160 79 -330
153 -475 205 -101 37 -102 38 -115 98 -22 106 -124 237 -223 285 -24 12 -74
27 -110 34 l-66 12 29 44 c17 24 30 47 30 51 0 10 21 18 90 36 119 31 288 124
328 181 41 59 60 150 60 285 -1 153 -3 156 -115 187 -111 30 -139 28 -191 -14
-63 -50 -78 -52 -126 -18 -77 54 -111 123 -229 468 -31 90 -58 188 -62 224 -4
40 -23 103 -52 175 -59 144 -64 153 -111 202 -21 22 -41 46 -43 53 -7 20 -290
38 -399 25z m-270 -579 c0 -8 -7 -15 -15 -15 -8 0 -15 7 -15 15 0 8 7 15 15
15 8 0 15 -7 15 -15z m1521 -566 c55 -14 63 -29 54 -102 -4 -34 -6 -90 -5
-125 1 -34 -4 -88 -10 -119 -10 -48 -20 -64 -64 -107 -28 -28 -67 -59 -86 -68
-105 -51 -165 -78 -174 -78 -6 0 -2 6 9 12 19 11 18 12 -9 23 l-29 12 90 61
c148 99 221 170 193 187 -5 3 -23 -1 -39 -10 -42 -21 -44 -19 -10 18 45 48
101 169 103 217 1 48 -28 80 -73 80 -14 0 -33 5 -41 11 -16 11 20 6 91 -12z
m-881 -104 c-6 -8 -9 -18 -6 -23 3 -6 -24 -13 -62 -17 -37 -4 -85 -13 -107
-21 -21 -7 -40 -12 -42 -11 -14 15 150 86 201 87 24 0 26 -2 16 -15z m-117
-152 c6 -16 19 -33 27 -40 13 -11 13 -12 -2 -13 -9 0 -20 5 -23 10 -3 6 -15
10 -26 10 -25 0 -35 25 -19 45 18 22 29 19 43 -12z m528 -43 c23 -13 26 -40 4
-40 -8 0 -15 -6 -15 -12 0 -7 -7 0 -15 16 -21 40 -11 55 26 36z m-595 -26 c-9
-8 -20 -12 -26 -9 -19 12 -10 25 16 25 23 0 24 -1 10 -16z m934 -19 c-7 -8
-18 -15 -24 -15 -6 0 -45 -16 -86 -36 -66 -31 -81 -35 -125 -29 -33 4 -61 15
-80 31 -22 19 -23 21 -5 10 16 -11 48 -16 96 -16 63 0 77 3 102 25 17 14 43
25 58 25 16 0 36 5 44 10 23 15 34 12 20 -5z m-639 -37 c22 -12 39 -28 39 -35
0 -8 -4 -11 -10 -8 -5 3 0 -12 12 -35 20 -36 21 -45 10 -85 -7 -25 -12 -65
-12 -89 0 -34 -6 -49 -30 -75 -28 -29 -30 -37 -28 -94 2 -72 -6 -103 -35 -134
-38 -42 -50 -27 -22 26 34 64 27 120 -19 156 -17 14 -36 30 -43 35 -7 6 -18
10 -25 10 -9 -1 -8 -4 3 -13 8 -7 18 -20 22 -30 5 -14 -1 -12 -28 8 -18 15
-35 36 -37 48 -2 14 -11 23 -24 25 -16 2 -23 12 -27 38 -3 19 -15 46 -26 61
-12 14 -21 41 -21 59 0 19 -5 34 -11 34 -6 0 -9 7 -5 15 3 10 -1 15 -12 16
-14 0 -14 2 2 8 16 6 17 9 5 17 -18 11 39 22 126 25 57 1 137 15 105 18 -13 1
-13 2 0 11 23 15 49 12 91 -12z m-1274 -94 c-3 -3 -12 -4 -19 -1 -8 3 -5 6 6
6 11 1 17 -2 13 -5z m-74 -41 c-7 -2 -19 -2 -25 0 -7 3 -2 5 12 5 14 0 19 -2
13 -5z m86 -53 c19 0 30 -4 26 -10 -3 -5 1 -10 9 -10 9 0 16 -5 16 -11 0 -20
-65 3 -95 34 -16 17 -21 23 -9 14 11 -9 35 -17 53 -17z m1602 -81 c-36 -21
-95 -26 -89 -7 5 14 33 22 86 25 l35 2 -32 -20z m-111 -24 c-7 -8 -19 -15 -26
-15 -8 0 -14 7 -14 15 0 10 10 15 26 15 22 0 25 -2 14 -15z m-1430 -155 c11
-11 20 -22 20 -25 0 -9 -41 -5 -61 6 -20 10 -20 11 -2 24 23 18 20 18 43 -5z
m1503 -460 c-3 -11 -9 -23 -14 -26 -5 -3 -9 -17 -9 -32 0 -25 1 -25 15 -6 14
19 14 19 15 -1 0 -49 -30 -129 -57 -151 -15 -13 -31 -23 -35 -24 -3 0 -9 23
-13 51 -7 49 -5 54 34 110 23 32 41 62 41 67 0 7 20 32 26 32 1 0 0 -9 -3 -20z
m-1128 -182 c7 -18 27 -43 44 -56 17 -12 31 -30 31 -38 0 -9 23 -41 51 -72 55
-60 53 -73 -12 -65 -29 4 -44 14 -74 54 -22 29 -45 49 -56 49 -26 0 -34 26
-19 58 8 15 13 29 13 32 -1 3 -4 20 -8 38 -4 21 -3 32 5 32 6 0 17 -15 25 -32z
m1005 -53 c0 -43 -2 -46 -67 -98 -38 -30 -79 -66 -92 -81 -22 -23 -61 -36 -61
-20 0 3 28 38 63 78 34 39 80 92 100 119 21 26 43 47 48 47 5 0 9 -20 9 -45z
m-823 -115 c-1 -12 -5 -16 -10 -11 -5 5 -6 14 -3 20 11 16 15 13 13 -9z m-904
-155 c-15 -19 -35 -35 -43 -35 -8 0 -1 13 20 34 46 45 58 45 23 1z m-108 -118
c-33 -29 -52 -53 -49 -62 3 -8 -8 -34 -25 -59 -17 -24 -31 -49 -31 -55 0 -6
-5 -11 -10 -11 -6 0 -3 16 6 38 9 20 19 49 24 63 15 50 40 87 82 122 30 25 45
32 50 24 5 -8 -13 -30 -47 -60z m-19 -64 c-10 -10 -19 5 -10 18 6 11 8 11 12
0 2 -7 1 -15 -2 -18z"/>
<path d="M3632 3588 c-7 -7 -12 -17 -12 -22 0 -6 5 -4 10 4 9 13 11 13 20 0 8
-12 10 -11 10 8 0 24 -10 28 -28 10z"/>
<path d="M2016 2311 c-4 -7 -5 -15 -2 -18 9 -9 19 4 14 18 -4 11 -6 11 -12 0z"/>
<path d="M1824 4904 c-26 -9 -44 -23 -47 -35 -3 -11 -2 -19 1 -17 4 2 28 14
55 26 26 12 47 26 47 32 0 13 -5 12 -56 -6z"/>
<path d="M1809 4823 c-27 -4 -67 -38 -57 -49 6 -6 108 43 108 51 0 5 -6 5 -51
-2z"/>
<path d="M1807 4734 c-15 -8 -31 -12 -36 -10 -7 5 -24 -45 -17 -51 1 -1 22 15
46 37 49 42 50 47 7 24z"/>
<path d="M1750 4622 c0 -5 6 -16 13 -26 12 -16 14 -15 36 8 l24 26 -36 0 c-20
0 -37 -4 -37 -8z"/>
<path d="M1775 4529 c3 -4 -7 -25 -21 -46 -24 -34 -26 -35 -20 -10 3 15 3 27
-2 27 -5 0 -9 -6 -9 -12 0 -7 -3 -23 -7 -35 -5 -16 -2 -23 14 -28 20 -6 21 -8
4 -26 -9 -10 -20 -16 -25 -14 -4 3 -8 -21 -7 -52 l0 -58 12 37 c7 20 27 54 45
76 30 39 31 41 11 47 -29 9 -25 24 17 60 l37 32 -27 5 c-14 3 -24 2 -22 -3z"/>
<path d="M1655 4439 c4 -42 11 -57 21 -46 11 11 11 72 0 79 -21 14 -25 8 -21
-33z"/>
<path d="M2037 4335 c-28 -49 -26 -51 33 -33 41 13 59 45 19 35 -17 -5 -20 -2
-16 14 10 38 -12 28 -36 -16z"/>
<path d="M1603 4314 c-23 -10 -14 -19 17 -18 17 0 31 5 33 10 2 10 -32 15 -50
8z"/>
<path d="M595 4113 c-320 -382 -515 -837 -575 -1338 -16 -129 -16 -421 0 -550
35 -298 121 -590 249 -843 83 -166 224 -378 328 -495 l33 -37 0 1650 c0 907
-1 1650 -2 1649 -2 0 -16 -17 -33 -36z"/>
<path d="M1657 4085 c-9 -19 -13 -35 -9 -35 16 0 54 48 47 59 -11 19 -21 12
-38 -24z"/>
<path d="M1560 3820 c-6 -12 -9 -24 -7 -27 3 -2 11 5 17 17 6 12 9 24 7 27 -3
2 -11 -5 -17 -17z"/>
<path d="M1530 3764 c0 -8 5 -12 10 -9 6 3 10 10 10 16 0 5 -4 9 -10 9 -5 0
-10 -7 -10 -16z"/>
<path d="M1913 3693 c-38 -3 -66 -9 -73 -18 -10 -12 -9 -15 3 -15 8 0 17 5 19
12 3 7 9 8 18 3 10 -6 8 -10 -11 -17 -44 -17 0 -26 111 -24 88 1 109 4 132 21
15 11 28 23 28 26 1 18 -65 21 -227 12z"/>
<path d="M1968 3593 c-10 -2 -18 -8 -18 -12 0 -4 -22 -20 -48 -34 -26 -14 -56
-35 -67 -47 -18 -20 -18 -20 13 -20 21 0 32 5 32 14 0 7 7 19 15 26 19 16 76
-8 72 -30 -1 -12 9 -15 48 -15 69 0 105 12 105 37 0 24 -18 59 -39 75 -16 12
-78 15 -113 6z m91 -79 c-17 -21 -31 -17 -19 6 6 11 15 18 21 14 6 -4 6 -11
-2 -20z"/>
<path d="M1835 3540 c-3 -5 -2 -10 4 -10 5 0 13 5 16 10 3 6 2 10 -4 10 -5 0
-13 -4 -16 -10z"/>
<path d="M1313 3288 c-24 -11 -31 -28 -13 -28 13 0 70 29 70 35 0 9 -34 4 -57
-7z"/>
<path d="M2105 2891 c14 -14 49 -18 55 -6 3 6 -11 11 -30 13 -24 2 -32 0 -25
-7z"/>
<path d="M3566 1793 c6 -85 10 -101 18 -92 8 8 -7 179 -16 179 -5 0 -6 -37 -2
-87z"/>
<path d="M2790 1619 c0 -5 5 -7 10 -4 6 3 10 8 10 11 0 2 -4 4 -10 4 -5 0 -10
-5 -10 -11z"/>
<path d="M2953 1375 c0 -44 2 -61 4 -37 2 23 2 59 0 80 -2 20 -4 1 -4 -43z"/>
<path d="M3583 1405 c-3 -9 -3 -18 -1 -21 3 -3 8 4 11 16 6 23 -1 27 -10 5z"/>
<path d="M3576 1338 c-9 -35 -7 -129 4 -189 21 -111 35 -302 46 -641 4 -126 9
-228 11 -228 2 0 13 5 23 10 16 9 18 15 9 36 -7 19 -6 31 2 41 8 9 9 17 2 24
-7 7 -7 24 -2 48 5 21 7 47 5 58 -8 39 -10 109 -4 119 8 13 4 157 -5 171 -4 6
-8 64 -9 130 -2 89 -7 121 -17 129 -12 10 -13 18 -3 51 16 55 15 63 -8 63 -22
0 -25 12 -9 41 7 15 7 24 -1 34 -7 8 -12 31 -13 52 0 21 -6 46 -12 56 -12 17
-13 16 -19 -5z"/>
<path d="M2948 1284 c-5 -4 -8 -19 -8 -33 1 -23 2 -24 11 -8 11 19 9 53 -3 41z"/>
<path d="M2936 1205 c-3 -9 -5 -42 -4 -73 l1 -57 7 70 c7 75 6 85 -4 60z"/>
<path d="M2933 985 c0 -22 2 -30 4 -17 2 12 2 30 0 40 -3 9 -5 -1 -4 -23z"/>
<path d="M2946 821 c-4 -6 -4 -39 0 -73 6 -62 6 -64 -20 -76 -49 -22 -57 -96
-13 -127 33 -23 66 -18 98 14 l29 30 -21 35 c-12 20 -26 71 -33 118 -10 75
-25 104 -40 79z"/>
</g>
</svg>
